<svg width="203" height="22" fill="none" xmlns="http://www.w3.org/2000/svg"><path d="M0 21.33h3.72l2.19-5.37h8.97l2.19 5.37H21L12.12.27H8.88L0 21.33zM10.41 5.04l3.06 7.47H7.32l3.09-7.47zm13.735 16.29h.42c1.92 0 4.26.06 5.52.06 8.01 0 12.03-4.86 12.03-10.77 0-5.55-3.39-10.38-11.79-10.38-1.53 0-4.53.09-5.79.09h-.39v21zm6.12-17.64c5.01 0 7.95 2.7 7.95 6.93 0 4.44-2.94 7.32-8.01 7.32-.51 0-1.35 0-2.37-.06V3.78c.84-.06 1.56-.09 2.43-.09zM62.245.33h-3.69l-5.97 15.57L46.345.33h-3.93l8.64 21.06h2.79l8.4-21.06zm-3.776 21h3.72l2.19-5.37h8.97l2.19 5.37h3.93L70.589.27h-3.24l-8.88 21.06zm10.41-16.29l3.06 7.47h-6.15l3.09-7.47zm31.675 16.29v-21h-3.45v14.61L85.554.33h-2.94v21h3.45V6.78l11.55 14.55h2.94zm3.21-17.55h6.81v17.55h3.69V3.78h6.81V.33h-17.31v3.45zm28.94 11.97c0 1.59-1.32 2.46-3.06 2.46-1.62 0-3.6-.78-4.83-2.37l-2.1 2.52c1.02 2.13 4.17 3.3 6.87 3.3 3.93 0 7.02-2.4 7.02-5.94 0-6.99-9.51-5.61-9.51-9.96 0-1.38 1.11-2.31 2.94-2.31 1.68 0 2.7.57 3.72 1.56l1.98-2.76c-1.26-1.38-3.42-2.25-6-2.25-4.08 0-6.54 2.64-6.54 5.79 0 6.84 9.51 5.82 9.51 9.96zm21.442 5.58h3.66v-21h-3.66v8.58h-9.6V.33h-3.69v21h3.69v-8.97h9.6v8.97zm7.914-10.5c0 6.54 4.68 10.83 10.92 10.83s10.95-4.53 10.95-10.83c0-6.54-4.71-10.83-10.95-10.83-6.45 0-10.92 4.74-10.92 10.83zm3.9 0c0-4.35 3-7.38 7.02-7.38 3.96 0 7.05 3.03 7.05 7.38 0 4.14-2.64 7.38-7.05 7.38-3.93 0-7.02-3.18-7.02-7.38zm25.93 10.5v-7.59c.9.09 2.1.09 2.73.09 5.01 0 7.68-3.24 7.68-6.81 0-3.45-1.95-6.75-8.13-6.75-1.47 0-4.8.06-5.97.06v21h3.69zm2.64-17.61c2.52 0 3.87 1.08 3.87 3.27 0 2.34-1.71 3.39-3.9 3.39-.84 0-1.74-.06-2.61-.15V3.78c.99-.03 1.89-.06 2.64-.06z" fill="#2D9CEE"/></svg>